<svg width="17" height="31" viewBox="0 0 17 31" fill="none" xmlns="http://www.w3.org/2000/svg">
<path d="M9.56694 0.917852C9.52964 1.06498 9.52964 1.06498 9.49155 1.21508C8.43407 5.36832 7.03967 9.26182 4.79971 12.8852C4.80838 12.8307 4.81704 12.7762 4.82597 12.72C5.05014 11.2804 5.25711 9.80937 4.9904 8.35972C4.77371 8.65124 4.59734 8.9491 4.42801 9.27345C4.37506 9.37426 4.32211 9.47505 4.26756 9.57891C4.21112 9.68682 4.15469 9.79473 4.09654 9.90592C3.64831 10.7572 3.19225 11.6023 2.71999 12.4389C0.921324 15.6349 -0.578851 18.8298 0.220159 22.6613C0.9195 25.3715 2.41701 27.7316 4.74223 29.1664C7.11996 30.5918 9.91839 31.0561 12.5875 30.3152C14.1995 29.8155 15.6023 29.009 16.8132 27.7689C16.4507 27.7689 16.2181 27.9261 15.9074 28.102C14.2597 29.0029 12.3927 29.113 10.6157 28.5734C9.72951 28.2499 8.92374 27.8442 8.23214 27.1655C8.15299 27.0899 8.07384 27.0144 7.99229 26.9365C6.63606 25.581 5.86533 23.7798 5.81478 21.8073C5.79686 19.4983 6.47166 17.6993 7.77813 15.8719C8.80345 14.4341 9.73132 12.9707 10.3297 11.2761C10.3507 12.1677 10.2878 13.0312 10.1867 13.916C10.1731 14.0401 10.1594 14.1641 10.1454 14.2919C10.112 14.5941 10.0782 14.8962 10.0437 15.1982C10.1218 15.2507 10.1997 15.3031 10.2802 15.3571C11.7382 16.3438 12.8974 17.4716 13.2854 19.3214C13.3068 19.5982 13.3249 19.8738 13.3391 20.1511C13.3432 20.226 13.3473 20.3009 13.3516 20.3781C13.3616 20.5622 13.3712 20.7463 13.3808 20.9304C15.069 19.2082 16.3995 17.0531 16.4616 14.5194C16.4209 12.436 15.5949 9.79916 14.3342 8.15859C14.3133 8.28278 14.2924 8.40696 14.2709 8.53492C13.999 10.0911 13.6909 11.6725 12.8087 12.9857C12.8362 12.8592 12.8638 12.7327 12.8921 12.6024C13.7163 8.66734 12.308 5.48017 10.4191 2.1435C10.3566 2.03306 10.2941 1.92261 10.2298 1.80883C9.97083 1.28659 9.97083 1.28659 9.56694 0.917852Z" fill="#E2454F"/>
</svg>
